<?xml version="1.0" encoding="iso-8859-1"?>
<!-- Generator: Adobe Illustrator 19.0.0, SVG Export Plug-In . SVG Version: 6.00 Build 0)  -->
<svg version="1.1" id="Layer_1" xmlns="http://www.w3.org/2000/svg" xmlns:xlink="http://www.w3.org/1999/xlink" x="0px" y="0px"
	 viewBox="0 0 360.871 360.871" style="enable-background:new 0 0 360.871 360.871;" xml:space="preserve">
<circle style="fill:#FF6D3B;" cx="178.462" cy="180.436" r="178.462"/>
<g>
	<rect x="75.471" y="243.722" style="fill:#FFFFFF;" width="36.411" height="14.843"/>
	<rect x="123.422" y="214.06" style="fill:#FFFFFF;" width="36.411" height="44.505"/>
	<rect x="171.348" y="184.399" style="fill:#FFFFFF;" width="36.411" height="74.166"/>
	<rect x="219.298" y="154.737" style="fill:#FFFFFF;" width="36.409" height="103.828"/>
	<rect x="267.249" y="125.051" style="fill:#FFFFFF;" width="36.411" height="133.514"/>
	<path style="fill:#FFFFFF;" d="M29.349,250.127l-0.288-1.794c3.938-0.638,7.904-1.445,11.793-2.405l0.436,1.77
		C37.354,248.665,33.337,249.484,29.349,250.127z M52.994,244.31l-0.574-1.726c3.744-1.246,7.542-2.666,11.286-4.226l0.699,1.681
		C60.623,241.615,56.783,243.052,52.994,244.31z M75.488,234.964l-0.812-1.627c3.495-1.748,7.07-3.668,10.619-5.716l0.908,1.578
		C82.624,231.262,79.018,233.206,75.488,234.964z M96.576,222.841l-0.99-1.526c3.257-2.112,6.619-4.404,9.996-6.809l1.056,1.482
		C103.239,218.407,99.855,220.711,96.576,222.841z M116.411,208.743l-1.108-1.442c3.05-2.343,6.242-4.871,9.482-7.505l1.15,1.413
		C122.681,203.855,119.478,206.39,116.411,208.743z M135.266,193.445l-1.179-1.386c2.841-2.41,5.846-4.994,9.182-7.904l1.194,1.374
		C141.122,188.441,138.114,191.033,135.266,193.445z M153.59,177.516l-1.206-1.366l9.095-8.039l1.204,1.366L153.59,177.516z
		 M171.803,161.47l-1.194-1.376c3.057-2.663,6.129-5.312,9.216-7.934l1.179,1.388C177.92,156.167,174.858,158.809,171.803,161.47z
		 M190.334,145.797l-1.15-1.413c3.269-2.658,6.481-5.201,9.548-7.557l1.108,1.442C196.79,140.613,193.593,143.148,190.334,145.797z
		 M209.573,131.045l-1.061-1.482c3.385-2.415,6.767-4.734,10.055-6.88l0.997,1.524C216.295,126.341,212.933,128.642,209.573,131.045
		z M229.844,117.849l-0.916-1.573c3.559-2.08,7.153-4.044,10.681-5.841l0.827,1.622C236.94,113.839,233.378,115.786,229.844,117.849
		z M251.335,106.934l-0.721-1.671c3.759-1.62,7.579-3.114,11.35-4.436l0.601,1.718C258.836,103.855,255.055,105.329,251.335,106.934
		z"/>
</g>
<polygon style="fill:#242D3C;" points="257.841,66.378 261.94,101.974 360.871,40.263 "/>
<g>
	<polygon style="fill:#F2F2F2;" points="267.436,72.825 302.513,96.418 360.871,40.263 	"/>
	<polygon style="fill:#F2F2F2;" points="236.475,52.005 257.841,66.378 360.871,40.263 	"/>
</g>
<polygon style="fill:#3E4959;" points="261.94,101.974 267.436,72.825 287.286,86.161 "/>
<g>
</g>
<g>
</g>
<g>
</g>
<g>
</g>
<g>
</g>
<g>
</g>
<g>
</g>
<g>
</g>
<g>
</g>
<g>
</g>
<g>
</g>
<g>
</g>
<g>
</g>
<g>
</g>
<g>
</g>
</svg>
